<svg xmlns="http://www.w3.org/2000/svg" fill="#333333" viewBox="0 0 72.6 72.59"><title>Asset 1</title><g id="Layer_2" data-name="Layer 2"><g id="Layer_1-2" data-name="Layer 1"><path d="M67.16,1A3.34,3.34,0,0,0,63.33.33C59.48,2.22,47.39,4.94,47.27,5l-.37.08L36.39,15a2.6,2.6,0,0,0-.89,1.91,3,3,0,0,0,.9,2.22l5.39,5.39L8.46,57.83,5.17,62.5,0,67.67l2.46,2.46h0l2.46,2.46,5.17-5.17,4.5-3.14L48.09,30.8l5.39,5.39a3,3,0,0,0,2.13.9h.09a2.59,2.59,0,0,0,1.88-.85l10-10.55.08-.37c0-.12,2.74-12.21,4.64-16.06a3.35,3.35,0,0,0-.69-3.83ZM13,62.23l-4.5,3.14L4.91,69l-.64-.64-.91.91.91-.91-.64-.64,3.43-3.43,3.29-4.67L43.6,26.32,46.26,29ZM69.81,8.05c-1.87,3.79-4.28,14.17-4.77,16.3l-9.43,10a.28.28,0,0,1-.2-.1L38.34,17.18a.34.34,0,0,1-.1-.17l10-9.46c2.13-.49,12.52-2.9,16.3-4.77a.61.61,0,0,1,.68.17l4.41,4.41A.65.65,0,0,1,69.81,8.05Z"/><path d="M49.53,9.62a.77.77,0,0,0-1.09,0l-7.91,7.91a.77.77,0,1,0,1.08,1.09l7.92-7.91A.77.77,0,0,0,49.53,9.62Z"/><path d="M52.26,12.34a.77.77,0,0,0-1.09,0l-7.91,7.91a.77.77,0,1,0,1.08,1.09l7.91-7.91A.76.76,0,0,0,52.26,12.34Z"/><path d="M55,15.07a.77.77,0,0,0-1.09,0L46,23a.77.77,0,1,0,1.08,1.09L55,16.16A.76.76,0,0,0,55,15.07Z"/><path d="M57.71,17.79a.77.77,0,0,0-1.09,0L48.71,25.7a.77.77,0,1,0,1.08,1.09l7.91-7.91A.76.76,0,0,0,57.71,17.79Z"/><path d="M60.43,20.52a.77.77,0,0,0-1.09,0l-7.91,7.91a.77.77,0,1,0,1.08,1.09l7.91-7.91A.76.76,0,0,0,60.43,20.52Z"/><path d="M62.07,23.24l-7.91,7.91a.77.77,0,1,0,1.08,1.09l7.91-7.91a.77.77,0,0,0,0-1.09A.76.76,0,0,0,62.07,23.24Z"/></g></g></svg>