<svg xmlns="http://www.w3.org/2000/svg" fill="#333333" viewBox="0 0 59.67 82.08"><title>Asset 1</title><g id="Layer_2" data-name="Layer 2"><g id="Layer_1-2" data-name="Layer 1"><path d="M21.09,26.9a2.38,2.38,0,0,0,1.72-.73,2,2,0,0,0,.56-1.5l-.32-11.3-.16-.25C22.84,13,17.68,4.89,16.6,1.73A2.61,2.61,0,0,0,14.11,0H9.26A2.59,2.59,0,0,0,6.77,1.73C5.69,4.89.53,13,.48,13.12l-.16.25L0,24.63a2,2,0,0,0,.56,1.54,2.36,2.36,0,0,0,1.72.73H8.22V63.59L9,68v5.69h5.41V68l.75-4.2,0-36.87ZM2.15,24.73,2.45,14c.91-1.44,5.29-8.49,6.35-11.6a.49.49,0,0,1,.47-.28h4.85a.48.48,0,0,1,.47.28C15.65,5.53,20,12.58,20.94,14l.31,10.69a.22.22,0,0,1-.16.06H2.3A.29.29,0,0,1,2.15,24.73Zm11,38.78-.75,4.2,0,4H11V67.88l-.76-4.38V26.9h2.93V63.51Z"/><path d="M4.3,14.44a.6.6,0,0,0-.6.6v8.7a.6.6,0,1,0,1.2,0V15A.6.6,0,0,0,4.3,14.44Z"/><path d="M7.3,14.44a.6.6,0,0,0-.6.6v8.7a.6.6,0,1,0,1.2,0V15A.6.6,0,0,0,7.3,14.44Z"/><path d="M10.3,14.44a.6.6,0,0,0-.6.6v8.7a.6.6,0,0,0,1.2,0V15A.6.6,0,0,0,10.3,14.44Z"/><path d="M13.3,14.44a.6.6,0,0,0-.6.6v8.7a.6.6,0,0,0,1.2,0V15A.6.6,0,0,0,13.3,14.44Z"/><path d="M16.3,14.44a.6.6,0,0,0-.6.6v8.7a.6.6,0,1,0,1.2,0V15A.6.6,0,0,0,16.3,14.44Z"/><path d="M19.3,14.44a.6.6,0,0,0-.6.6v8.7a.6.6,0,0,0,1.2,0V15A.6.6,0,0,0,19.3,14.44Z"/><path d="M44,52c-.62.79-6,7.79-6,11.25a6.83,6.83,0,1,0,13.66,0c0-3.46-5.41-10.46-6-11.25l-.79-1Zm5.6,11.25a4.8,4.8,0,1,1-9.6,0c0-1.84,2.69-6.09,4.8-9C46.88,57.2,49.57,61.44,49.57,63.29Z"/><path d="M54.36,32.09c-.38-.2-.74-.38-1-.58a2.33,2.33,0,0,1-1.16-1.93,2.32,2.32,0,0,0-1-4.44H37.85a2.32,2.32,0,0,0-1,4.44,2.34,2.34,0,0,1-1.16,1.93c-.31.2-.67.38-1,.58-2.12,1.1-5.32,2.76-5.32,8.86V77.43A4.66,4.66,0,0,0,32,81.74a3.89,3.89,0,0,0,1.59.34h21.8A4,4,0,0,0,57,81.74a4.66,4.66,0,0,0,2.67-4.31V40.94C59.68,34.84,56.47,33.18,54.36,32.09ZM37.85,26.64H51.19a.83.83,0,0,1,0,1.66H37.85a.83.83,0,1,1,0-1.66ZM57.68,74.5c-2.13.09-7.5.31-12.73.31-5.72,0-11.9-.26-13.6-.33V47c1.8.08,7.92.33,13.6.33,5.19,0,10.54-.21,12.73-.31ZM56.2,79.91a2,2,0,0,1-.78.17H33.62a2,2,0,0,1-.78-.17,2.68,2.68,0,0,1-1.48-2.48V76c1.8.08,7.92.33,13.6.33,5.19,0,10.54-.21,12.73-.31v1.42A2.74,2.74,0,0,1,56.2,79.91ZM57.68,45.5c-2.13.09-7.5.31-12.73.31-5.72,0-11.9-.26-13.6-.33V40.94c0-4.89,2.25-6,4.24-7.08.44-.23.85-.44,1.22-.68a4.28,4.28,0,0,0,2-3.39H50.15a4.29,4.29,0,0,0,2.05,3.39c.38.24.79.46,1.22.68,2,1,4.24,2.2,4.24,7.08V45.5Z"/></g></g></svg>